{
    "asset" : {
        "generator" : "Khronos glTF Blender I/O v1.8.19",
        "version" : "2.0"
    },
    "scene" : 0,
    "scenes" : [
        {
            "name" : "Scene",
            "nodes" : [
                0,
                1,
                2,
                3,
                4
            ]
        }
    ],
    "nodes" : [
        {
            "mesh" : 0,
            "name" : "Block",
            "translation" : [
                8,
                1,
                0
            ]
        },
        {
            "mesh" : 1,
            "name" : "Floor",
            "scale" : [
                8.937273025512695,
                1.0744808912277222,
                6.181168556213379
            ]
        },
        {
            "mesh" : 2,
            "name" : "Step",
            "translation" : [
                0,
                1,
                -5
            ]
        },
        {
            "mesh" : 3,
            "name" : "Step 2",
            "translation" : [
                0,
                2,
                -5
            ]
        },
        {
            "mesh" : 4,
            "name" : "Tree",
            "scale" : [
                1.152293086051941,
                1,
                1.152293086051941
            ],
            "translation" : [
                -6,
                1,
                -6
            ]
        }
    ],
    "materials" : [
        {
            "doubleSided" : true,
            "name" : "Cube",
            "pbrMetallicRoughness" : {
                "baseColorFactor" : [
                    0.8000000715255737,
                    0.29882705211639404,
                    0,
                    1
                ],
                "metallicFactor" : 0,
                "roughnessFactor" : 0.5
            }
        },
        {
            "doubleSided" : true,
            "name" : "Floor",
            "pbrMetallicRoughness" : {
                "baseColorFactor" : [
                    0.026241129264235497,
                    0.10461647063493729,
                    0.011612269096076488,
                    1
                ],
                "metallicFactor" : 0,
                "roughnessFactor" : 0.5
            }
        },
        {
            "doubleSided" : true,
            "name" : "Tree",
            "pbrMetallicRoughness" : {
                "baseColorFactor" : [
                    0.01392587460577488,
                    0.0013508046977221966,
                    0.0009101246250793338,
                    1
                ],
                "metallicFactor" : 0,
                "roughnessFactor" : 0.5
            }
        }
    ],
    "meshes" : [
        {
            "name" : "Cube.001",
            "primitives" : [
                {
                    "attributes" : {
                        "POSITION" : 0,
                        "NORMAL" : 1,
                        "TEXCOORD_0" : 2
                    },
                    "indices" : 3,
                    "material" : 0
                }
            ]
        },
        {
            "name" : "Plane",
            "primitives" : [
                {
                    "attributes" : {
                        "POSITION" : 4,
                        "NORMAL" : 5,
                        "TEXCOORD_0" : 6
                    },
                    "indices" : 7,
                    "material" : 1
                }
            ]
        },
        {
            "name" : "Cube.002",
            "primitives" : [
                {
                    "attributes" : {
                        "POSITION" : 8,
                        "NORMAL" : 9,
                        "TEXCOORD_0" : 10
                    },
                    "indices" : 11,
                    "material" : 1
                }
            ]
        },
        {
            "name" : "Cube.003",
            "primitives" : [
                {
                    "attributes" : {
                        "POSITION" : 12,
                        "NORMAL" : 13,
                        "TEXCOORD_0" : 14
                    },
                    "indices" : 11,
                    "material" : 1
                }
            ]
        },
        {
            "name" : "Cylinder",
            "primitives" : [
                {
                    "attributes" : {
                        "POSITION" : 15,
                        "NORMAL" : 16,
                        "TEXCOORD_0" : 17
                    },
                    "indices" : 18,
                    "material" : 2
                }
            ]
        }
    ],
    "accessors" : [
        {
            "bufferView" : 0,
            "componentType" : 5126,
            "count" : 116,
            "max" : [
                1.112823486328125,
                1.0685272216796875,
                1.1269862651824951
            ],
            "min" : [
                -1.1354085206985474,
                -1,
                -1.1128177642822266
            ],
            "type" : "VEC3"
        },
        {
            "bufferView" : 1,
            "componentType" : 5126,
            "count" : 116,
            "type" : "VEC3"
        },
        {
            "bufferView" : 2,
            "componentType" : 5126,
            "count" : 116,
            "type" : "VEC2"
        },
        {
            "bufferView" : 3,
            "componentType" : 5123,
            "count" : 204,
            "type" : "SCALAR"
        },
        {
            "bufferView" : 4,
            "componentType" : 5126,
            "count" : 4,
            "max" : [
                1,
                0,
                1
            ],
            "min" : [
                -1,
                0,
                -1
            ],
            "type" : "VEC3"
        },
        {
            "bufferView" : 5,
            "componentType" : 5126,
            "count" : 4,
            "type" : "VEC3"
        },
        {
            "bufferView" : 6,
            "componentType" : 5126,
            "count" : 4,
            "type" : "VEC2"
        },
        {
            "bufferView" : 7,
            "componentType" : 5123,
            "count" : 6,
            "type" : "SCALAR"
        },
        {
            "bufferView" : 8,
            "componentType" : 5126,
            "count" : 24,
            "max" : [
                9,
                0,
                2
            ],
            "min" : [
                -1,
                -1,
                -3
            ],
            "type" : "VEC3"
        },
        {
            "bufferView" : 9,
            "componentType" : 5126,
            "count" : 24,
            "type" : "VEC3"
        },
        {
            "bufferView" : 10,
            "componentType" : 5126,
            "count" : 24,
            "type" : "VEC2"
        },
        {
            "bufferView" : 11,
            "componentType" : 5123,
            "count" : 36,
            "type" : "SCALAR"
        },
        {
            "bufferView" : 12,
            "componentType" : 5126,
            "count" : 24,
            "max" : [
                9,
                0,
                1
            ],
            "min" : [
                2,
                -1,
                -3
            ],
            "type" : "VEC3"
        },
        {
            "bufferView" : 13,
            "componentType" : 5126,
            "count" : 24,
            "type" : "VEC3"
        },
        {
            "bufferView" : 14,
            "componentType" : 5126,
            "count" : 24,
            "type" : "VEC2"
        },
        {
            "bufferView" : 15,
            "componentType" : 5126,
            "count" : 576,
            "max" : [
                1.8916577100753784,
                5.484609603881836,
                1.6432952880859375
            ],
            "min" : [
                -1.5507935285568237,
                -1.0766900777816772,
                -1
            ],
            "type" : "VEC3"
        },
        {
            "bufferView" : 16,
            "componentType" : 5126,
            "count" : 576,
            "type" : "VEC3"
        },
        {
            "bufferView" : 17,
            "componentType" : 5126,
            "count" : 576,
            "type" : "VEC2"
        },
        {
            "bufferView" : 18,
            "componentType" : 5123,
            "count" : 948,
            "type" : "SCALAR"
        }
    ],
    "bufferViews" : [
        {
            "buffer" : 0,
            "byteLength" : 1392,
            "byteOffset" : 0
        },
        {
            "buffer" : 0,
            "byteLength" : 1392,
            "byteOffset" : 1392
        },
        {
            "buffer" : 0,
            "byteLength" : 928,
            "byteOffset" : 2784
        },
        {
            "buffer" : 0,
            "byteLength" : 408,
            "byteOffset" : 3712
        },
        {
            "buffer" : 0,
            "byteLength" : 48,
            "byteOffset" : 4120
        },
        {
            "buffer" : 0,
            "byteLength" : 48,
            "byteOffset" : 4168
        },
        {
            "buffer" : 0,
            "byteLength" : 32,
            "byteOffset" : 4216
        },
        {
            "buffer" : 0,
            "byteLength" : 12,
            "byteOffset" : 4248
        },
        {
            "buffer" : 0,
            "byteLength" : 288,
            "byteOffset" : 4260
        },
        {
            "buffer" : 0,
            "byteLength" : 288,
            "byteOffset" : 4548
        },
        {
            "buffer" : 0,
            "byteLength" : 192,
            "byteOffset" : 4836
        },
        {
            "buffer" : 0,
            "byteLength" : 72,
            "byteOffset" : 5028
        },
        {
            "buffer" : 0,
            "byteLength" : 288,
            "byteOffset" : 5100
        },
        {
            "buffer" : 0,
            "byteLength" : 288,
            "byteOffset" : 5388
        },
        {
            "buffer" : 0,
            "byteLength" : 192,
            "byteOffset" : 5676
        },
        {
            "buffer" : 0,
            "byteLength" : 6912,
            "byteOffset" : 5868
        },
        {
            "buffer" : 0,
            "byteLength" : 6912,
            "byteOffset" : 12780
        },
        {
            "buffer" : 0,
            "byteLength" : 4608,
            "byteOffset" : 19692
        },
        {
            "buffer" : 0,
            "byteLength" : 1896,
            "byteOffset" : 24300
        }
    ],
    "buffers" : [
        {
            "byteLength" : 26196,
            "uri" : "data:application/octet-stream;base64,"
        }
    ]
}
